HIERARCHY
ROOT simHips
{
  OFFSET -182.152 97.3082 -11.4164
  CHANNELS 6 Xposition Yposition Zposition Zrotation Xrotation Yrotation
  JOINT simSpine
  {
    OFFSET -0.000355721 21.3001 -0.016921
    CHANNELS 3 Zrotation Xrotation Yrotation
    JOINT simLeftArm
    {
      OFFSET 13.5181 21.3012 0
      CHANNELS 3 Zrotation Xrotation Yrotation
      JOINT simLeftForeArm
      {
        OFFSET 24.5783 0 0
        CHANNELS 3 Zrotation Xrotation Yrotation
        JOINT simLeftHand
        {
          OFFSET 24.5783 0 0
          CHANNELS 3 Zrotation Xrotation Yrotation
          End Site
          {
            OFFSET 7.32568 1.52588e-05 0.0169305
          }
        }
      }
    }
    JOINT simHead
    {
      OFFSET 0 27.4458 -0.00489235
      CHANNELS 3 Zrotation Xrotation Yrotation
      End Site
      {
        OFFSET 0 0 0
      }
    }
    JOINT simRightArm
    {
      OFFSET -13.5174 21.3012 0
      CHANNELS 3 Zrotation Xrotation Yrotation
      JOINT simRightForeArm
      {
        OFFSET -24.5783 0 0
        CHANNELS 3 Zrotation Xrotation Yrotation
        JOINT simRightHand
        {
          OFFSET -24.5783 0 0
          CHANNELS 3 Zrotation Xrotation Yrotation
          End Site
          {
            OFFSET -7.32568 1.52588e-05 0.0169305
          }
        }
      }
    }
  }
  JOINT simRightUpLeg
  {
    OFFSET -8.44614 -9.41038 0.835684
    CHANNELS 3 Zrotation Xrotation Yrotation
    JOINT simRightLeg
    {
      OFFSET 0 -40.9639 0
      CHANNELS 3 Zrotation Xrotation Yrotation
      JOINT simRightFoot
      {
        OFFSET 0 -40.9639 0
        CHANNELS 3 Zrotation Xrotation Yrotation
        End Site
        {
          OFFSET 0.50614 -9.67405 14.6709
        }
      }
    }
  }
  JOINT simLeftUpLeg
  {
    OFFSET 8.44614 -9.41038 0.835684
    CHANNELS 3 Zrotation Xrotation Yrotation
    JOINT simLeftLeg
    {
      OFFSET 0 -40.9639 0
      CHANNELS 3 Zrotation Xrotation Yrotation
      JOINT simLeftFoot
      {
        OFFSET 0 -40.9639 0
        CHANNELS 3 Zrotation Xrotation Yrotation
        End Site
        {
          OFFSET -0.50614 -9.67405 14.6709
        }
      }
    }
  }
}
MOTION
Frames:	9
Frame Time:	0.0333333
148.66 96.5267 -4.20073 15.1957 -11.203 -84.2653 -13.3506 -3.06111 -2.09933 -72.5751 19.0043 18.9408 -0.000182579 0.000674998 -67.3059 -10.6917 -18.2403 14.4369 -2.10754 10.0358 1.54166 63.7815 26.1047 -8.33919 -0.0012049 -0.000206547 81.9537 -19.5966 -14.7371 15.6533 -15.1368 -19.8572 -7.5822 3.63269e-05 70.5021 0.0148234 2.49263 -1.84822 1.97512 -11.024 -24.1552 3.06345 -2.10387e-05 28.7242 0.179602 -42.8428 -19.4928 -1.05545 
142.816 94.5128 -3.94349 15.0254 -11.1312 -83.8892 -13.3502 -2.50708 -3.05628 -69.6848 19.9854 12.7952 -0.000143341 0.000374358 -68.8516 -10.8122 -18.8633 14.0184 -1.5724 9.44597 0.832733 64.6449 23.8034 -11.1941 -0.00163993 -0.000166389 78.1393 -18.636 -13.1487 14.8018 -16.2443 -29.8267 -7.82235 -0.0167041 83.286 0.0219603 -2.0265 -7.65653 -0.242102 -10.9881 -22.759 1.15031 -5.67483e-05 34.8986 0.215376 -46.4414 -25.1214 -5.87661 
136.887 92.9791 -3.85216 15.4552 -11.7008 -82.1084 -13.6342 -2.31386 -4.47449 -66.6752 20.8417 5.0567 -0.000118589 9.90098e-05 -70.5786 -9.76712 -17.6883 14.0712 -1.37032 9.20059 -0.502931 65.5432 20.4988 -15.8913 -0.0016071 -0.000134211 75.114 -19.9065 -13.595 13.2429 -18.9931 -39.8567 -9.33657 -0.0473558 89.4632 0.0439476 -3.54558 -12.2787 -1.18717 -10.8597 -19.8231 2.51288 9.6388e-06 37.3701 0.280095 -48.0785 -26.1542 -11.6322 
130.647 92.0043 -3.61811 15.4311 -10.3052 -81.3262 -12.7844 -2.12768 -5.66693 -63.4024 19.567 -1.44992 -0.000115321 -0.000123147 -74.8171 -10.7657 -18.0283 14.2094 -0.997942 9.06497 -0.623949 66.5171 19.7485 -21.1953 -0.00120408 -0.00014387 74.9581 -21.2375 -16.6207 11.2993 -19.0431 -48.3979 -10.1711 0.0341035 88.5417 -0.0485789 -4.2195 -16.4744 -2.22348 -8.35494 -14.5974 4.23676 -2.45086e-05 35.8318 0.420967 -50.2689 -26.3136 -16.4008 
123.857 91.8105 -3.27284 15.4998 -8.92356 -80.7657 -11.7785 -2.2324 -6.84072 -60.558 17.5996 -6.80692 -0.000145716 -0.000213046 -80.3156 -12.6535 -18.451 14.8397 -0.261909 9.68906 -0.492397 67.0289 20.2408 -26.2774 -0.000524807 -0.000190044 77.0091 -19.689 -16.2755 13.0835 -19.4088 -53.8957 -11.598 -0.000825394 81.0403 -0.0134411 -2.88594 -20.2132 -2.6602 -6.71065 -7.34145 4.28994 -4.58086e-06 29.9947 0.548492 -49.4763 -26.2713 -16.27 
116.3 92.3289 -2.91634 15.7497 -6.89418 -81.759 -10.2824 -2.91392 -7.46233 -57.8765 15.5803 -9.82602 -0.000222144 -0.000220838 -85.6017 -12.2653 -18.7739 15.5136 0.609048 11.2497 0.720566 67.6838 21.9002 -29.7463 0.000336321 -0.000261843 78.6944 -19.4817 -18.5816 12.7793 -16.0023 -56.3217 -9.75463 -0.000866115 68.0264 -0.00285201 -0.924145 -22.1355 -2.14276 -4.76438 0.40727 1.85699 -2.81973e-05 22.2628 0.680381 -48.0665 -24.125 -10.2255 
108.157 93.1863 -2.6358 16.0264 -5.66898 -83.6778 -9.33579 -4.10878 -7.26262 -55.5183 14.9116 -10.136 -0.000219557 -0.000214674 -89.7672 -12.5153 -20.3031 15.2262 1.25419 13.3877 2.281 67.7337 23.7015 -31.0827 0.00128419 -0.000358579 79.4865 -18.747 -19.0141 13.5267 -11.9329 -55.5098 -6.62686 -0.00125337 53.695 0.0584995 5.48663 -22.9293 1.22764 -3.4805 5.49004 -1.99384 8.57894e-05 19.2688 0.745171 -47.3703 -18.0875 -0.188346 
99.7522 93.915 -2.40518 16.3595 -6.04027 -85.8765 -8.95656 -5.22263 -6.72738 -55.0083 14.7706 -7.59257 -0.000279129 -0.000208577 -92.4559 -11.7863 -19.8905 15.2381 0.921657 15.8289 4.43764 66.3185 25.4494 -28.535 0.00221366 -0.000534829 78.4626 -18.995 -19.9479 13.546 -9.94066 -53.1574 -5.05925 -0.00144533 45.2764 0.133645 13.6677 -21.8006 8.85765 -3.82769 3.30791 -1.96176 -6.80473e-05 27.9991 0.683058 -48.21 -7.06746 11.1049 
91.6608 93.9132 -2.24836 15.3835 -5.79663 -88.9755 -7.97873 -5.34604 -5.29333 -56.2675 14.5196 -1.77905 -0.000279606 -0.000213837 -92.6509 -10.8132 -20.1201 15.0753 0.374414 18.944 6.88812 64.2 26.6662 -22.0583 0.00302976 -0.000777683 76.7871 -17.7055 -18.6971 14.6865 -6.01624 -48.7644 -1.94119 0.0031188 44.1524 0.168342 20.0236 -16.2724 15.6388 -2.7793 -5.41061 0.515311 -3.32836e-05 49.954 0.634745 -52.0572 1.30647 17.1706 
